<?xml version="1.0" encoding="UTF-8"?>
<svg width="18px" height="18px" viewBox="0 0 18 18" version="1.1" xmlns="http://www.w3.org/2000/svg">
    <g stroke="none" stroke-width="1" fill="#FFFFFF" fill-rule="evenodd">
        <path d="M16.5,0 C17.3284271,0 18,0.671572875 18,1.5 L18,16.5 C18,17.3284271 17.3284271,18 16.5,18 L1.5,18 C0.671572875,18 0,17.3284271 0,16.5 L0,1.5 C0,0.671572875 0.671572875,0 1.5,0 L16.5,0 Z M5.40352744,14.9895449 L5.40352744,6.87952662 L2.73314831,6.87952662 L2.73314831,14.9895449 L5.40352744,14.9895449 Z M4.06833788,5.76054336 C4.89671835,5.76054336 5.41722257,5.19304443 5.41722257,4.47999476 C5.40352744,3.75324996 4.89671835,3.19945616 4.08203301,3.19945616 C3.26734766,3.19945616 2.73314831,3.75324996 2.73314831,4.47999476 C2.73314831,5.19304443 3.25365253,5.76054336 4.05464275,5.76054336 L4.06833788,5.76054336 Z M9.72941208,14.9895449 L9.72941208,10.4722961 C9.72941208,10.2397889 9.74310721,10.0072816 9.81157796,9.84227567 C9.99228482,9.37728161 10.4064839,8.89858242 11.1153517,8.89858242 C12.0399947,8.89858242 12.4130669,9.61162696 12.4130669,10.6631563 L12.4130669,14.9895449 L15.0834461,14.9895449 L15.0834461,10.3676925 C15.0834461,7.85953116 13.748257,6.69504817 11.9673312,6.69504817 C10.5233564,6.69504817 9.85606426,7.51533532 9.48555672,8.07283425 L9.72941208,6.87952662 L7.05903295,6.87952662 C7.09642321,7.57886603 7.05903295,14.9895449 7.05903295,14.9895449 L9.72941208,14.9895449 Z"/>
    </g>
</svg>
